<svg width="19" height="19" viewBox="0 0 19 19" fill="none" xmlns="http://www.w3.org/2000/svg">
<path d="M7.58281 12.8643L12.8672 9.49967L7.58281 6.13509V12.8643ZM9.5026 17.4163C8.42066 17.4163 7.39809 17.2085 6.4349 16.7929C5.4717 16.3773 4.63056 15.8099 3.91146 15.0908C3.19236 14.3717 2.625 13.5306 2.20937 12.5674C1.79375 11.6042 1.58594 10.5816 1.58594 9.49967C1.58594 8.40454 1.79375 7.37537 2.20937 6.41217C2.625 5.44898 3.19236 4.61113 3.91146 3.89863C4.63056 3.18613 5.4717 2.62207 6.4349 2.20645C7.39809 1.79082 8.42066 1.58301 9.5026 1.58301C10.5977 1.58301 11.6269 1.79082 12.5901 2.20645C13.5533 2.62207 14.3911 3.18613 15.1036 3.89863C15.8161 4.61113 16.3802 5.44898 16.7958 6.41217C17.2115 7.37537 17.4193 8.40454 17.4193 9.49967C17.4193 10.5816 17.2115 11.6042 16.7958 12.5674C16.3802 13.5306 15.8161 14.3717 15.1036 15.0908C14.3911 15.8099 13.5533 16.3773 12.5901 16.7929C11.6269 17.2085 10.5977 17.4163 9.5026 17.4163ZM9.5026 16.2288C11.3762 16.2288 12.9661 15.5724 14.2724 14.2596C15.5786 12.9467 16.2318 11.3601 16.2318 9.49967C16.2318 7.62606 15.5786 6.03613 14.2724 4.72988C12.9661 3.42363 11.3762 2.77051 9.5026 2.77051C7.64219 2.77051 6.05556 3.42363 4.74271 4.72988C3.42986 6.03613 2.77344 7.62606 2.77344 9.49967C2.77344 11.3601 3.42986 12.9467 4.74271 14.2596C6.05556 15.5724 7.64219 16.2288 9.5026 16.2288Z" fill="#1C8EA8"/>
</svg>
